<svg height="512" viewBox="0 0 128 128" width="512" xmlns="http://www.w3.org/2000/svg"><g id="Outline"><path d="m76.212 32.62a13.589 13.589 0 0 0 -10.475-7.178v-23.402a1.5 1.5 0 1 0 -3 0v23.394a13.6 13.6 0 0 0 -10.556 7.205 47.909 47.909 0 1 0 24.031-.019zm32.033 37.48a76.717 76.717 0 0 0 -10.719-2.845 58.275 58.275 0 0 0 -4.926-15.219 63.745 63.745 0 0 1 10.556 4.614 44.572 44.572 0 0 1 5.089 13.45zm-44.04-22.464c2.855 0 5.676.124 8.447.362a104.6 104.6 0 0 1 2.812 16.644c-3.667-.2-7.434-.308-11.259-.308s-7.592.109-11.258.308a104.493 104.493 0 0 1 2.811-16.642c2.771-.24 5.592-.364 8.447-.364zm-7.552-2.715c2.2-6.874 4.943-10.834 7.552-10.834s5.355 3.961 7.552 10.836c-2.486-.185-5.005-.287-7.552-.287s-5.066.1-7.552.285zm7.552 22.413c3.918 0 7.771.115 11.51.324.261 3.585.405 7.382.405 11.366s-.144 7.781-.405 11.366c-3.739.209-7.592.324-11.51.324s-7.771-.114-11.505-.324c-.261-3.585-.405-7.382-.405-11.366s.144-7.781.405-11.366c3.734-.209 7.587-.324 11.505-.324zm11.6-19.008a86.652 86.652 0 0 1 12.807 2.495 53.712 53.712 0 0 1 5.767 15.858c-4.857-.828-10.23-1.455-15.912-1.851a113.183 113.183 0 0 0 -2.659-16.502zm-25.867 16.5c-5.684.4-11.056 1.025-15.914 1.853a53.692 53.692 0 0 1 5.776-15.858 86.626 86.626 0 0 1 12.8-2.495 113.151 113.151 0 0 0 -2.659 16.501zm-.249 3.021c-.266 3.691-.4 7.451-.4 11.176s.136 7.485.4 11.176a156.2 156.2 0 0 1 -16.2-1.956 63.586 63.586 0 0 1 0-18.44 156.2 156.2 0 0 1 16.203-1.955zm.249 25.375a113.105 113.105 0 0 0 2.666 16.5 86.6 86.6 0 0 1 -12.8-2.5 53.728 53.728 0 0 1 -5.776-15.853c4.858.831 10.231 1.458 15.913 1.854zm3.006.184c3.666.2 7.434.307 11.258.307s7.592-.109 11.259-.308a104.628 104.628 0 0 1 -2.813 16.644c-2.771.238-5.592.361-8.446.361s-5.675-.124-8.446-.362a104.5 104.5 0 0 1 -2.809-16.641zm25.523-.186c5.683-.4 11.054-1.025 15.912-1.853a53.654 53.654 0 0 1 -5.779 15.865 86.619 86.619 0 0 1 -12.8 2.49 113.257 113.257 0 0 0 2.67-16.501zm.248-3.021c.266-3.691.4-7.452.4-11.176s-.136-7.485-.4-11.176a156.144 156.144 0 0 1 16.2 1.956 63.586 63.586 0 0 1 0 18.44 156.178 156.178 0 0 1 -16.197 1.957zm21.07-38.57a73.192 73.192 0 0 0 -9.27-3.383 40.729 40.729 0 0 0 -9.157-10.746 45.183 45.183 0 0 1 18.43 14.13zm-13.5-4.494a91.927 91.927 0 0 0 -11.321-1.925 34.371 34.371 0 0 0 -4.6-10.249c6.141 1.756 11.636 6.093 15.924 12.175zm-22.08-18.789a10.553 10.553 0 0 1 8.413 4.205 24.834 24.834 0 0 0 -16.829.01 10.544 10.544 0 0 1 8.416-4.215zm-6.157 6.615a34.367 34.367 0 0 0 -4.6 10.245 91.958 91.958 0 0 0 -11.326 1.931c4.285-6.083 9.783-10.42 15.926-12.176zm-10.992 2.539a40.763 40.763 0 0 0 -9.166 10.749 73.228 73.228 0 0 0 -9.272 3.386 45.189 45.189 0 0 1 18.438-14.135zm-21.8 19.149a63.766 63.766 0 0 1 10.555-4.612 58.255 58.255 0 0 0 -4.923 15.222 76.914 76.914 0 0 0 -10.717 2.835 44.62 44.62 0 0 1 5.08-13.445zm-5.987 22.375a45.062 45.062 0 0 1 .342-5.517 64.62 64.62 0 0 1 10.781-3.107 64.833 64.833 0 0 0 0 17.246 64.614 64.614 0 0 1 -10.781-3.106 45.033 45.033 0 0 1 -.342-5.516zm11.615 11.769a58.308 58.308 0 0 0 4.938 15.222 63.7 63.7 0 0 1 -10.547-4.605 44.6 44.6 0 0 1 -5.108-13.452 77.016 77.016 0 0 0 10.717 2.835zm-2.235 15.636a73.423 73.423 0 0 0 9.228 3.362 40.606 40.606 0 0 0 9.209 10.773 45.145 45.145 0 0 1 -18.437-14.135zm13.5 4.493a92.124 92.124 0 0 0 11.3 1.913 34.409 34.409 0 0 0 4.6 10.249c-6.137-1.755-11.617-6.094-15.898-12.162zm22.056 13.038c-2.608 0-5.351-3.958-7.548-10.829q3.726.278 7.548.28c2.546 0 5.065-.1 7.55-.286-2.197 6.875-4.941 10.835-7.55 10.835zm10.756-11.121a91.866 91.866 0 0 0 11.3-1.926c-4.279 6.063-9.754 10.4-15.882 12.156a34.439 34.439 0 0 0 4.582-10.23zm6.407 7.708a40.639 40.639 0 0 0 9.176-10.76 73.207 73.207 0 0 0 9.23-3.374 45.16 45.16 0 0 1 -18.406 14.134zm21.766-19.136a63.726 63.726 0 0 1 -10.539 4.6 58.423 58.423 0 0 0 4.932-15.225 77.063 77.063 0 0 0 10.718-2.836 44.636 44.636 0 0 1 -5.111 13.461zm-5.116-13.764a64.889 64.889 0 0 0 0-17.246 64.606 64.606 0 0 1 10.782 3.106 44.6 44.6 0 0 1 0 11.033 64.656 64.656 0 0 1 -10.782 3.107z"/><path d="m116.461 42.009-1.889-1.033a2.761 2.761 0 0 1 -1.1-1.1l-1.033-1.887a2.051 2.051 0 0 0 -3.6 0l-1.032 1.887a2.759 2.759 0 0 1 -1.1 1.1l-1.888 1.033a2.051 2.051 0 0 0 0 3.6l1.888 1.033a2.763 2.763 0 0 1 1.1 1.1l1.032 1.887a2.05 2.05 0 0 0 3.6 0l1.033-1.888a2.761 2.761 0 0 1 1.1-1.1l1.888-1.033a2.051 2.051 0 0 0 0-3.6zm-3.327 2a5.777 5.777 0 0 0 -2.3 2.3v.007a.22.22 0 0 1 -.386 0v-.007a5.771 5.771 0 0 0 -2.3-2.3l-.011-.009a.22.22 0 0 1 0-.386l.012-.007a5.788 5.788 0 0 0 2.3-2.3.22.22 0 0 1 .386 0l.006.011a5.754 5.754 0 0 0 2.283 2.287l.023.012a.22.22 0 0 1 0 .386z"/><path d="m26.617 112.043-3-1.639a5.263 5.263 0 0 1 -2.1-2.1l-1.639-3a2.374 2.374 0 0 0 -4.166 0l-1.638 3a5.266 5.266 0 0 1 -2.1 2.1l-3 1.639a2.375 2.375 0 0 0 0 4.166l3 1.64a5.254 5.254 0 0 1 2.1 2.1l1.64 3a2.375 2.375 0 0 0 4.167 0l1.637-3a5.266 5.266 0 0 1 2.1-2.1l3-1.64a2.373 2.373 0 0 0 0-4.166zm-4.44 3.176a8.255 8.255 0 0 0 -3.286 3.287l-.7 1.288a.44.44 0 0 1 -.772 0l-.7-1.287a8.273 8.273 0 0 0 -3.29-3.29l-1.288-.7a.439.439 0 0 1 0-.772l1.291-.706a8.264 8.264 0 0 0 3.287-3.287l.7-1.288a.439.439 0 0 1 .772 0l.7 1.288a8.26 8.26 0 0 0 3.287 3.288l1.29.7a.44.44 0 0 1 0 .772z"/><path d="m106.721 24.872-2.57-1.406a4.322 4.322 0 0 1 -1.714-1.714l-1.406-2.571a2.253 2.253 0 0 0 -1.975-1.17 2.248 2.248 0 0 0 -1.973 1.169l-1.408 2.573a4.3 4.3 0 0 1 -1.713 1.713l-2.569 1.406a2.249 2.249 0 0 0 0 3.948l2.569 1.405a4.311 4.311 0 0 1 1.713 1.713l1.408 2.573a2.248 2.248 0 0 0 1.973 1.169 2.252 2.252 0 0 0 1.976-1.172l1.4-2.568a4.314 4.314 0 0 1 1.715-1.715l2.57-1.405a2.249 2.249 0 0 0 0-3.948zm-4.01 2.721a7.312 7.312 0 0 0 -2.911 2.907l-.473.865a.313.313 0 0 1 -.549 0l-.468-.865a7.307 7.307 0 0 0 -2.91-2.906l-.865-.474a.313.313 0 0 1 0-.549l.865-.471a7.316 7.316 0 0 0 2.908-2.91l.472-.862a.313.313 0 0 1 .549 0l.474.866a7.32 7.32 0 0 0 2.906 2.906l.865.473a.313.313 0 0 1 0 .549z"/></g></svg>