<?xml version="1.0"?>
<svg xmlns="http://www.w3.org/2000/svg" viewBox="0 0 64 64" width="512" height="512"><g id="_14-car" data-name="14-car"><path d="M5,52a1,1,0,0,0,1-1V50a1,1,0,0,0-2,0v1A1,1,0,0,0,5,52Z"/><path d="M5,54a1,1,0,0,0-1,1v1a1,1,0,0,0,2,0V55A1,1,0,0,0,5,54Z"/><path d="M3,52H2a1,1,0,0,0,0,2H3a1,1,0,0,0,0-2Z"/><path d="M8,52H7a1,1,0,0,0,0,2H8a1,1,0,0,0,0-2Z"/><path d="M56.472,50.178a1,1,0,0,0-1.424,1.4l.7.71a1,1,0,1,0,1.424-1.4Z"/><path d="M60,53.7a1,1,0,1,0-1.414,1.414l.71.71a1,1,0,0,0,1.414-1.414Z"/><path d="M55.748,53.708l-.7.71a1,1,0,1,0,1.424,1.4l.7-.71a1,1,0,1,0-1.424-1.4Z"/><path d="M59.293,50.173l-.71.71A1,1,0,1,0,60,52.3l.71-.71a1,1,0,0,0-1.414-1.414Z"/><path d="M51.213,55.164l-.049-.037-4.735-4.2a3.862,3.862,0,0,0-4.37-.608c-.386-.337-.75-.672-1.079-1.013a1,1,0,1,0-1.441,1.386c.332.345.694.683,1.074,1.02-.045.081-.1.154-.142.239a3.889,3.889,0,0,0,.108,3.432l2.77,5.44a.559.559,0,0,0,.033.047,4.993,4.993,0,1,0,7.831-5.707ZM42.28,52.805a1.335,1.335,0,0,1,.372-.494,1.679,1.679,0,0,1,.909-.393,1.954,1.954,0,0,1,1.545.51L46.994,54.1a5,5,0,0,0-3.455,2.686l-1.177-2.31A1.89,1.89,0,0,1,42.28,52.805ZM48,62a2.986,2.986,0,0,1-2.813-1.979A2.916,2.916,0,0,1,45,59a3,3,0,0,1,4.9-2.319.747.747,0,0,0,.063.048A3,3,0,0,1,48,62Z"/><path d="M26.561,46.141a1,1,0,0,0-1.371.348,15.908,15.908,0,0,1-3.257,3.829,3.888,3.888,0,0,0-1.192-.377,3.94,3.94,0,0,0-3.175.991l-4.72,4.186,0,0c-.019.014-.039.028-.057.043a5,5,0,1,0,7.834,5.7c.009-.015.022-.027.03-.043l2.771-5.442a3.878,3.878,0,0,0,.118-3.407c-.045-.1-.107-.178-.158-.269a17.9,17.9,0,0,0,3.528-4.195A1,1,0,0,0,26.561,46.141ZM16,62a3,3,0,0,1-1.966-5.271.747.747,0,0,0,.063-.048A3,3,0,0,1,19,59a2.934,2.934,0,0,1-.192,1.034A2.981,2.981,0,0,1,16,62Zm5.639-7.524-1.178,2.312A5,5,0,0,0,17.006,54.1l1.883-1.67a1.965,1.965,0,0,1,1.556-.513,1.7,1.7,0,0,1,.936.421,1.328,1.328,0,0,1,.35.487A1.884,1.884,0,0,1,21.639,54.476Z"/><path d="M56,45V41h1a3.015,3.015,0,0,0,3-3,3,3,0,0,0-3-3h-.074l-.619-8.087a5.341,5.341,0,0,0-2.772-4.259L51.7,9.8a9.75,9.75,0,0,0-6.747-7.9,46.071,46.071,0,0,0-25.907,0A9.75,9.75,0,0,0,12.3,9.8L10.463,22.671a5.292,5.292,0,0,0-1.086.748,5.353,5.353,0,0,0-1.684,3.5L7.074,35H7a3,3,0,0,0-3,3,3.017,3.017,0,0,0,3,3H8v4a3,3,0,0,0,3,3h4a3.015,3.015,0,0,0,3-3V41h6a1,1,0,0,0,1,1h1.888a11.69,11.69,0,0,1-.419,1.69,1,1,0,0,0,.641,1.261,1.013,1.013,0,0,0,.31.049,1,1,0,0,0,.951-.69A13.61,13.61,0,0,0,28.912,42H31v7.17a4.312,4.312,0,0,0-2.033,1.2,4.007,4.007,0,0,0-1.057,2.21l-.742,5.181A4.739,4.739,0,0,0,27,59a5,5,0,0,0,10,0,4.688,4.688,0,0,0-.17-1.255l-.74-5.17a4.009,4.009,0,0,0-1.059-2.209A4.313,4.313,0,0,0,33,49.17V42h2.088a14.946,14.946,0,0,0,2.057,5.6,1,1,0,1,0,1.71-1.037A13.194,13.194,0,0,1,37.113,42H39a1,1,0,0,0,1-1h6v4a3.017,3.017,0,0,0,3,3h4A3,3,0,0,0,56,45ZM32,62a3,3,0,0,1-3-2.958l.131-.912a2.991,2.991,0,0,1,5.731.008l.13.9A3,3,0,0,1,32,62Zm2.11-9.139.249,1.739a4.941,4.941,0,0,0-4.718,0l.249-1.735a2,2,0,0,1,.521-1.111,2.059,2.059,0,0,1,3.176,0A2,2,0,0,1,34.11,52.861ZM19.633,3.806a43.243,43.243,0,0,1,24.733,0,7.74,7.74,0,0,1,5.354,6.275l1.708,11.96C51.284,22.03,51.146,22,51,22H49.674l-1.31-11.76a5.751,5.751,0,0,0-4.6-5.021A62.19,62.19,0,0,0,32,4,62.186,62.186,0,0,0,20.233,5.22a5.75,5.75,0,0,0-4.6,5.019L14.326,22H13c-.146,0-.284.03-.428.041L14.28,10.083A7.741,7.741,0,0,1,19.633,3.806ZM24,18.613a8.2,8.2,0,0,1-1-3.733,7.757,7.757,0,0,1,.312-2.127A3.746,3.746,0,0,1,24.7,10.779,4.064,4.064,0,0,1,27.1,10c1.743,0,3.018.893,4.012,2.811A1,1,0,0,0,32,13.35h0a1,1,0,0,0,.886-.535,5.917,5.917,0,0,1,1.508-1.962A3.793,3.793,0,0,1,36.9,10a4.061,4.061,0,0,1,2.4.776,3.747,3.747,0,0,1,1.389,1.974,7.511,7.511,0,0,1-.68,5.86A15.581,15.581,0,0,1,37.743,22H36.109a20.51,20.51,0,0,0,2.871-6.8,1,1,0,0,0-1.96-.392A17.411,17.411,0,0,1,33.563,22H26.257A15.554,15.554,0,0,1,24,18.613ZM43.2,24l-1.924,3.08A6.185,6.185,0,0,1,36,30H28a6.183,6.183,0,0,1-5.272-2.92L20.8,24Zm-2.9-2a18.746,18.746,0,0,0,1.5-2.494,9.455,9.455,0,0,0,.817-7.3,5.761,5.761,0,0,0-2.134-3.046A6.048,6.048,0,0,0,36.9,8a5.787,5.787,0,0,0-3.764,1.3A6.648,6.648,0,0,0,32,10.475,5.919,5.919,0,0,0,27.1,8a6.045,6.045,0,0,0-3.582,1.165,5.746,5.746,0,0,0-2.129,3.04A9.731,9.731,0,0,0,21,14.88a10.114,10.114,0,0,0,1.207,4.63,18.646,18.646,0,0,0,1.5,2.49h-7.37l1.286-11.54a3.755,3.755,0,0,1,3-3.278A60.2,60.2,0,0,1,32,6,60.2,60.2,0,0,1,43.373,7.181a3.756,3.756,0,0,1,3,3.28L47.662,22ZM9.687,27.069a3.345,3.345,0,0,1,1.051-2.184,3.4,3.4,0,0,1,1.029-.643A3.175,3.175,0,0,1,13,24h5.446l2.587,4.142A8.184,8.184,0,0,0,28,32h8a8.173,8.173,0,0,0,6.968-3.86L45.554,24H51a3.2,3.2,0,0,1,1.25.249,3.325,3.325,0,0,1,2.063,2.817L54.921,35H52.967c-.21-3.623-1.562-7-3.967-7s-3.757,3.377-3.967,7H40a1,1,0,0,0-1-1H25a1,1,0,0,0-1,1H18.967c-.21-3.623-1.562-7-3.967-7s-3.757,3.377-3.967,7H9.08ZM50.957,35H47.043c.206-3.118,1.318-5,1.957-5S50.751,31.882,50.957,35Zm-34,0H13.043c.206-3.118,1.318-5,1.957-5S16.751,31.882,16.957,35ZM16,45a.978.978,0,0,1-.306.713A.965.965,0,0,1,15,46H11a1,1,0,0,1-1-1V41h3v2a1,1,0,0,0,2,0V41h1ZM7,39a.978.978,0,0,1-.712-.306A.957.957,0,0,1,6,38a1,1,0,0,1,1-1H24v2Zm19,1V36H38v4Zm14-3H57a1,1,0,0,1,1,1,.978.978,0,0,1-.306.713A.965.965,0,0,1,57,39H40Zm13,9H49a.978.978,0,0,1-.712-.306A.957.957,0,0,1,48,45V41h1v2a1,1,0,0,0,2,0V41h3v4A1,1,0,0,1,53,46Z"/></g></svg>
