<?xml version="1.0" encoding="UTF-8" standalone="no"?>
<!-- Created with Inkscape (http://www.inkscape.org/) -->

<svg
   version="1.1"
   id="svg819"
   xml:space="preserve"
   width="682.66669"
   height="682.66669"
   viewBox="0 0 682.66669 682.66669"
   xmlns="http://www.w3.org/2000/svg"
   xmlns:svg="http://www.w3.org/2000/svg"><defs
     id="defs823"><clipPath
       clipPathUnits="userSpaceOnUse"
       id="clipPath849"><path
         d="M 0,512 H 512 V 0 H 0 Z"
         id="path847" /></clipPath></defs><g
     id="g825"
     transform="matrix(1.3333333,0,0,-1.3333333,0,682.66667)"><g
       id="g827"
       transform="translate(407.1162,424.2544)"><path
         d="M 0,0 V -31.437"
         style="fill:none;stroke:#000000;stroke-width:15;stroke-linecap:round;stroke-linejoin:round;stroke-miterlimit:10;stroke-dasharray:none;stroke-opacity:1"
         id="path829" /></g><g
       id="g831"
       transform="translate(422.835,408.5356)"><path
         d="M 0,0 H -31.437"
         style="fill:none;stroke:#000000;stroke-width:15;stroke-linecap:round;stroke-linejoin:round;stroke-miterlimit:10;stroke-dasharray:none;stroke-opacity:1"
         id="path833" /></g><g
       id="g835"
       transform="translate(69.9863,305.0962)"><path
         d="M 0,0 V -31.437"
         style="fill:none;stroke:#000000;stroke-width:15;stroke-linecap:round;stroke-linejoin:round;stroke-miterlimit:10;stroke-dasharray:none;stroke-opacity:1"
         id="path837" /></g><g
       id="g839"
       transform="translate(85.7051,289.3774)"><path
         d="M 0,0 H -31.437"
         style="fill:none;stroke:#000000;stroke-width:15;stroke-linecap:round;stroke-linejoin:round;stroke-miterlimit:10;stroke-dasharray:none;stroke-opacity:1"
         id="path841" /></g><g
       id="g843"><g
         id="g845"
         clip-path="url(#clipPath849)"><g
           id="g851"
           transform="translate(103.165,187.647)"><path
             d="m 0,0 c 18.896,0.15 19.005,14.336 38.102,14.336 19.196,0 19.196,-14.343 38.393,-14.343 19.194,0 19.194,14.343 38.39,14.343 19.197,0 19.197,-14.343 38.394,-14.343 19.198,0 19.198,14.343 38.395,14.343 19.198,0 19.198,-14.343 38.396,-14.343 19.199,0 19.199,14.343 38.396,14.343 18.789,0 19.203,-13.726 37.204,-14.315"
             style="fill:none;stroke:#000000;stroke-width:15;stroke-linecap:round;stroke-linejoin:round;stroke-miterlimit:10;stroke-dasharray:none;stroke-opacity:1"
             id="path853" /></g><g
           id="g855"
           transform="translate(142.3594,289.4741)"><path
             d="m 0,0 c 18.071,-0.343 20.811,-13.958 39.277,-13.958 18.702,0 18.702,13.974 37.402,13.974 18.703,0 18.703,-13.974 37.406,-13.974 18.703,0 18.703,13.974 37.406,13.974 18.704,0 18.704,-13.974 37.408,-13.974 18.604,0 19.963,13.819 38.382,13.967"
             style="fill:none;stroke:#000000;stroke-width:15;stroke-linecap:round;stroke-linejoin:round;stroke-miterlimit:10;stroke-dasharray:none;stroke-opacity:1"
             id="path857" /></g><g
           id="g859"
           transform="translate(179.8955,363.4956)"><path
             d="m 0,0 c 16.793,1.164 21.676,14.809 39.579,14.809 18.703,0 18.703,-13.975 37.406,-13.975 18.703,0 18.703,13.975 37.407,13.975 18.704,0 18.704,-13.975 37.408,-13.975 l 0.409,0.041"
             style="fill:none;stroke:#000000;stroke-width:15;stroke-linecap:round;stroke-linejoin:round;stroke-miterlimit:10;stroke-dasharray:none;stroke-opacity:1"
             id="path861" /></g><g
           id="g863"
           transform="translate(332.1045,335.5713)"><path
             d="m 0,0 v 74.2 c 0,7.256 -5.882,13.137 -13.138,13.137 h -125.933 c -7.256,0 -13.138,-5.881 -13.138,-13.137 V 0"
             style="fill:none;stroke:#000000;stroke-width:15;stroke-linecap:round;stroke-linejoin:round;stroke-miterlimit:10;stroke-dasharray:none;stroke-opacity:1"
             id="path865" /></g><g
           id="g867"
           transform="translate(204.499,335.5713)"><path
             d="M 0,0 H -49.002 C -56.258,0 -62.14,-5.882 -62.14,-13.137 V -90.9"
             style="fill:none;stroke:#000000;stroke-width:15;stroke-linecap:round;stroke-linejoin:round;stroke-miterlimit:10;stroke-dasharray:none;stroke-opacity:1"
             id="path869" /></g><g
           id="g871"
           transform="translate(369.6406,244.6709)"><path
             d="M 0,0 V 77.763 C 0,85.019 -5.882,90.9 -13.138,90.9 h -116.968"
             style="fill:none;stroke:#000000;stroke-width:15;stroke-linecap:round;stroke-linejoin:round;stroke-miterlimit:10;stroke-dasharray:none;stroke-opacity:1"
             id="path873" /></g><g
           id="g875"
           transform="translate(408.835,139.6606)"><path
             d="m 0,0 v 91.874 c 0,7.255 -5.882,13.136 -13.138,13.136 h -279.394 c -7.256,0 -13.138,-5.881 -13.138,-13.136 V 0"
             style="fill:none;stroke:#000000;stroke-width:15;stroke-linecap:round;stroke-linejoin:round;stroke-miterlimit:10;stroke-dasharray:none;stroke-opacity:1"
             id="path877" /></g><g
           id="g879"
           transform="translate(168.7803,139.6606)"><path
             d="m 0,0 h 271.038 c 9.894,0 17.914,-8.021 17.914,-17.914 0,-9.894 -8.02,-17.915 -17.914,-17.915 H -96.599 c -9.893,0 -17.914,8.021 -17.914,17.915 0,9.893 8.021,17.914 17.914,17.914 h 61.042"
             style="fill:none;stroke:#000000;stroke-width:15;stroke-linecap:round;stroke-linejoin:round;stroke-miterlimit:10;stroke-dasharray:none;stroke-opacity:1"
             id="path881" /></g><g
           id="g883"
           transform="translate(239.5918,103.832)"><path
             d="M 0,0 V -13.762 C 0,-36.94 -17.612,-56.324 -40.685,-58.539 l -29.171,-2.801 c -14.833,-1.425 -26.158,-13.887 -26.158,-28.789 0,-3.426 2.778,-6.203 6.203,-6.203 h 212.438 c 3.426,0 6.203,2.777 6.203,6.203 0,14.902 -11.323,27.364 -26.157,28.789 l -29.172,2.801 C 50.429,-56.324 32.817,-36.94 32.817,-13.762 V 0"
             style="fill:none;stroke:#000000;stroke-width:15;stroke-linecap:round;stroke-linejoin:round;stroke-miterlimit:10;stroke-dasharray:none;stroke-opacity:1"
             id="path885" /></g><g
           id="g887"
           transform="translate(263.7285,422.9087)"><path
             d="m 0,0 c 14.368,7.253 43.767,25.433 43.772,52.779 0.004,16.023 -12.782,28.813 -28.804,28.812 -10.484,0 -16.537,-4.967 -19.715,-8.973 -1.57,-1.978 -4.563,-1.912 -6.171,0.035 -3.394,4.111 -9.764,9.213 -20.357,8.927 C -46.813,81.159 -59.309,68.136 -59.229,52.592 -59.09,25.349 -29.792,7.237 -15.457,0"
             style="fill:none;stroke:#000000;stroke-width:15;stroke-linecap:round;stroke-linejoin:round;stroke-miterlimit:10;stroke-dasharray:none;stroke-opacity:1"
             id="path889" /></g></g></g></g></svg>
